<svg xmlns="http://www.w3.org/2000/svg" xmlns:xlink="http://www.w3.org/1999/xlink" width="100" zoomAndPan="magnify" viewBox="0 0 75 30.000001" height="40" preserveAspectRatio="xMidYMid meet" version="1.0"><defs><g/><clipPath id="5ca74b4906"><path d="M 0.15625 4 L 11 4 L 11 15 L 0.15625 15 Z M 0.15625 4 " clip-rule="nonzero"/></clipPath><clipPath id="2daa459350"><path d="M 55 4 L 64.957031 4 L 64.957031 15 L 55 15 Z M 55 4 " clip-rule="nonzero"/></clipPath><clipPath id="faf0690e71"><rect x="0" width="65" y="0" height="19"/></clipPath></defs><g transform="matrix(1, 0, 0, 1, 5, 5)"><g clip-path="url(#faf0690e71)"><g clip-path="url(#5ca74b4906)"><g fill="#000000" fill-opacity="1"><g transform="translate(0.364173, 14.195068)"><g><path d="M 8.109375 0 L 7.375 -2.09375 L 3.109375 -2.09375 L 2.375 0 L 0.203125 0 L 3.953125 -10.15625 L 6.53125 -10.15625 L 10.265625 0 Z M 3.71875 -3.859375 L 6.75 -3.859375 L 5.234375 -8.171875 Z M 3.71875 -3.859375 "/></g></g></g></g><g fill="#000000" fill-opacity="1"><g transform="translate(10.336607, 14.195068)"><g><path d="M 5.8125 0.140625 C 5.070312 0.140625 4.382812 0.015625 3.75 -0.234375 C 3.101562 -0.484375 2.550781 -0.828125 2.09375 -1.265625 C 1.632812 -1.710938 1.273438 -2.265625 1.015625 -2.921875 C 0.753906 -3.578125 0.625 -4.296875 0.625 -5.078125 C 0.625 -6.117188 0.847656 -7.039062 1.296875 -7.84375 C 1.742188 -8.632812 2.359375 -9.238281 3.140625 -9.65625 C 3.929688 -10.082031 4.820312 -10.296875 5.8125 -10.296875 C 6.945312 -10.296875 7.941406 -10.019531 8.796875 -9.46875 C 9.640625 -8.925781 10.242188 -8.171875 10.609375 -7.203125 L 8.640625 -6.5 C 8.421875 -7.082031 8.054688 -7.535156 7.546875 -7.859375 C 7.046875 -8.191406 6.46875 -8.359375 5.8125 -8.359375 C 4.914062 -8.359375 4.175781 -8.0625 3.59375 -7.46875 C 3.007812 -6.875 2.71875 -6.078125 2.71875 -5.078125 C 2.71875 -4.078125 3.007812 -3.28125 3.59375 -2.6875 C 4.175781 -2.09375 4.914062 -1.796875 5.8125 -1.796875 C 6.46875 -1.796875 7.046875 -1.960938 7.546875 -2.296875 C 8.054688 -2.628906 8.421875 -3.085938 8.640625 -3.671875 L 10.609375 -2.953125 C 10.242188 -1.992188 9.640625 -1.238281 8.796875 -0.6875 C 7.941406 -0.132812 6.945312 0.140625 5.8125 0.140625 Z M 5.8125 0.140625 "/></g></g></g><g fill="#000000" fill-opacity="1"><g transform="translate(21.363263, 14.195068)"><g><path d="M 11.359375 0.421875 L 9.609375 1.09375 L 8.3125 -0.375 C 7.570312 -0.03125 6.753906 0.140625 5.859375 0.140625 C 4.859375 0.140625 3.960938 -0.0703125 3.171875 -0.5 C 2.367188 -0.914062 1.742188 -1.523438 1.296875 -2.328125 C 0.835938 -3.117188 0.609375 -4.035156 0.609375 -5.078125 C 0.609375 -6.117188 0.835938 -7.039062 1.296875 -7.84375 C 1.742188 -8.632812 2.363281 -9.238281 3.15625 -9.65625 C 3.945312 -10.082031 4.847656 -10.296875 5.859375 -10.296875 C 6.867188 -10.296875 7.769531 -10.082031 8.5625 -9.65625 C 9.351562 -9.238281 9.976562 -8.632812 10.4375 -7.84375 C 10.882812 -7.039062 11.109375 -6.117188 11.109375 -5.078125 C 11.109375 -3.585938 10.660156 -2.367188 9.765625 -1.421875 Z M 2.703125 -5.078125 C 2.703125 -4.023438 3 -3.195312 3.59375 -2.59375 C 4.175781 -1.988281 4.929688 -1.6875 5.859375 -1.6875 C 6.785156 -1.6875 7.539062 -1.988281 8.125 -2.59375 C 8.71875 -3.195312 9.015625 -4.023438 9.015625 -5.078125 C 9.015625 -6.078125 8.71875 -6.875 8.125 -7.46875 C 7.53125 -8.0625 6.773438 -8.359375 5.859375 -8.359375 C 4.941406 -8.359375 4.1875 -8.0625 3.59375 -7.46875 C 3 -6.875 2.703125 -6.078125 2.703125 -5.078125 Z M 2.703125 -5.078125 "/></g></g></g><g fill="#1153d8" fill-opacity="1"><g transform="translate(33.214212, 14.195068)"><g><path d="M 5.078125 0.140625 C 4.503906 0.140625 3.984375 0.0664062 3.515625 -0.078125 C 3.035156 -0.222656 2.613281 -0.445312 2.25 -0.75 C 1.894531 -1.039062 1.613281 -1.425781 1.40625 -1.90625 C 1.207031 -2.382812 1.109375 -2.9375 1.109375 -3.5625 L 1.109375 -10.15625 L 3.21875 -10.15625 L 3.21875 -3.84375 C 3.21875 -3.113281 3.382812 -2.578125 3.71875 -2.234375 C 4.0625 -1.890625 4.515625 -1.71875 5.078125 -1.71875 C 5.640625 -1.71875 6.09375 -1.890625 6.4375 -2.234375 C 6.78125 -2.578125 6.953125 -3.113281 6.953125 -3.84375 L 6.953125 -10.15625 L 9.0625 -10.15625 L 9.0625 -3.5625 C 9.0625 -2.9375 8.957031 -2.382812 8.75 -1.90625 C 8.550781 -1.425781 8.269531 -1.039062 7.90625 -0.75 C 7.539062 -0.445312 7.117188 -0.222656 6.640625 -0.078125 C 6.171875 0.0664062 5.648438 0.140625 5.078125 0.140625 Z M 5.078125 0.140625 "/></g></g></g><g fill="#1153d8" fill-opacity="1"><g transform="translate(43.376443, 14.195068)"><g><path d="M 1.3125 0 L 1.3125 -10.15625 L 3.421875 -10.15625 L 3.421875 0 Z M 1.3125 0 "/></g></g></g><g fill="#1153d8" fill-opacity="1"><g transform="translate(48.10617, 14.195068)"><g><path d="M 7.203125 -10.15625 L 7.203125 -8.296875 L 4.796875 -8.296875 L 4.796875 0 L 2.703125 0 L 2.703125 -8.296875 L 0.28125 -8.296875 L 0.28125 -10.15625 Z M 7.203125 -10.15625 "/></g></g></g><g clip-path="url(#2daa459350)"><g fill="#1153d8" fill-opacity="1"><g transform="translate(55.590803, 14.195068)"><g><path d="M 8.9375 -10.15625 L 5.59375 -4.859375 L 5.59375 0 L 3.484375 0 L 3.484375 -4.8125 L 0.125 -10.15625 L 2.453125 -10.15625 L 4.53125 -6.703125 L 6.609375 -10.15625 Z M 8.9375 -10.15625 "/></g></g></g></g></g></g></svg>